<svg width="48" height="48" viewBox="0 0 48 48" fill="none" xmlns="http://www.w3.org/2000/svg">
<rect width="48" height="48" rx="4" fill="#5867E8"/>
<path fill-rule="evenodd" clip-rule="evenodd" d="M34.416 9.60014H13.5216C11.3232 9.60014 9.53758 11.3089 9.60478 13.3489V34.6513C9.58852 35.0125 9.63066 35.374 9.72958 35.7217C10.8971 34.9676 12.1407 34.3386 13.44 33.8449C15.5424 32.9809 15.7872 32.2225 15.7872 31.3777C15.7872 30.5329 15.168 29.7601 14.4912 29.0929C13.9 28.5405 13.43 27.8712 13.1111 27.1275C12.7921 26.3839 12.6312 25.5821 12.6384 24.7729C12.6384 21.5041 14.736 18.7249 18.3984 18.7249C22.0608 18.7249 24.1584 21.5617 24.1584 24.7729C24.1937 25.5859 24.0455 26.3964 23.7247 27.1443C23.404 27.8922 22.9189 28.5582 22.3056 29.0929C21.6288 29.7121 21.0096 30.5329 21.0096 31.3777C21.0096 32.2225 21.3216 32.9809 23.3568 33.8449C26.0832 34.9585 28.6368 36.2209 29.184 38.4001H34.464C35.4805 38.4158 36.4624 38.0317 37.1986 37.3306C37.9347 36.6295 38.3661 35.6674 38.4 34.6513V13.3489C38.3612 12.3261 37.9216 11.3596 37.1761 10.6582C36.4307 9.95676 35.4393 9.57672 34.416 9.60014ZM34.08 22.0081C34.08 22.2627 33.9788 22.5069 33.7988 22.687C33.6188 22.867 33.3746 22.9681 33.12 22.9681H25.92C25.6654 22.9681 25.4212 22.867 25.2412 22.687C25.0611 22.5069 24.96 22.2627 24.96 22.0081V20.5681C24.96 20.3135 25.0611 20.0694 25.2412 19.8893C25.4212 19.7093 25.6654 19.6081 25.92 19.6081H33.12C33.3746 19.6081 33.6188 19.7093 33.7988 19.8893C33.9788 20.0694 34.08 20.3135 34.08 20.5681V22.0081ZM36.48 15.7681C36.48 16.0227 36.3788 16.2669 36.1988 16.447C36.0188 16.627 35.7746 16.7281 35.52 16.7281H25.92C25.6654 16.7281 25.4212 16.627 25.2412 16.447C25.0611 16.2669 24.96 16.0227 24.96 15.7681V14.3281C24.96 14.0735 25.0611 13.8294 25.2412 13.6493C25.4212 13.4693 25.6654 13.3681 25.92 13.3681H35.52C35.7746 13.3681 36.0188 13.4693 36.1988 13.6493C36.3788 13.8294 36.48 14.0735 36.48 14.3281V15.7681Z" fill="white"/>
</svg>